<svg id="svg" version="1.1" xmlns="http://www.w3.org/2000/svg" xmlns:xlink="http://www.w3.org/1999/xlink" width="400" height="400" viewBox="0, 0, 400,400"><g id="svgg"><path id="path0" d="M200.267 200.267 C 200.120 200.413,200.000 245.416,200.000 300.272 L 200.000 400.011 287.380 399.905 C 356.638 399.822,374.864 399.696,375.260 399.300 C 375.535 399.025,376.174 398.800,376.680 398.800 C 377.186 398.800,377.600 398.620,377.600 398.400 C 377.600 398.180,378.140 398.000,378.800 398.000 C 379.460 398.000,380.000 397.820,380.000 397.600 C 380.000 397.380,380.360 397.200,380.800 397.200 C 381.240 397.200,381.600 397.020,381.600 396.800 C 381.600 396.580,381.920 396.400,382.312 396.400 C 382.703 396.400,383.283 396.040,383.600 395.600 C 383.917 395.160,384.457 394.800,384.800 394.800 C 385.143 394.800,385.683 394.440,386.000 394.000 C 386.317 393.560,386.807 393.200,387.088 393.200 C 387.370 393.200,387.600 393.020,387.600 392.800 C 387.600 392.580,387.789 392.400,388.019 392.400 C 388.565 392.400,392.400 388.565,392.400 388.019 C 392.400 387.789,392.580 387.600,392.800 387.600 C 393.020 387.600,393.200 387.370,393.200 387.088 C 393.200 386.807,393.560 386.317,394.000 386.000 C 394.440 385.683,394.800 385.143,394.800 384.800 C 394.800 384.457,395.160 383.917,395.600 383.600 C 396.040 383.283,396.400 382.703,396.400 382.312 C 396.400 381.920,396.580 381.600,396.800 381.600 C 397.020 381.600,397.200 381.240,397.200 380.800 C 397.200 380.360,397.380 380.000,397.600 380.000 C 397.820 380.000,398.000 379.460,398.000 378.800 C 398.000 378.140,398.180 377.600,398.400 377.600 C 398.620 377.600,398.800 377.186,398.800 376.680 C 398.800 376.174,399.025 375.535,399.300 375.260 C 399.696 374.864,399.822 356.638,399.905 287.380 L 400.011 200.000 300.272 200.000 C 245.416 200.000,200.413 200.120,200.267 200.267 M333.861 260.057 C 343.714 263.744,344.110 277.521,334.489 281.850 L 332.377 282.800 294.452 282.800 L 256.528 282.800 254.080 281.577 C 244.582 276.830,245.617 263.692,255.800 259.759 C 258.376 258.764,331.148 259.042,333.861 260.057 M332.440 306.433 C 338.225 308.275,341.600 312.565,341.600 318.076 C 341.600 319.856,341.441 320.447,340.164 323.418 C 339.353 325.303,336.879 327.606,334.427 328.756 L 332.200 329.800 296.200 329.928 C 270.395 330.020,259.444 329.926,257.529 329.597 C 245.556 327.539,243.986 311.200,255.343 306.833 C 257.767 305.901,329.598 305.528,332.440 306.433 " stroke="none" fill="#044cac" fill-rule="evenodd"></path><path id="path1" d="M101.879 47.778 C 99.879 48.491,97.350 50.266,96.367 51.647 C 94.180 54.717,94.215 54.380,94.000 74.800 L 93.800 93.800 74.800 94.000 C 56.500 94.193,55.732 94.231,53.964 95.049 C 45.535 98.948,44.936 110.768,52.934 115.363 C 55.861 117.045,57.842 117.200,76.420 117.200 L 94.000 117.200 94.006 135.500 C 94.011 149.078,94.142 154.213,94.516 155.400 C 97.200 163.931,107.197 166.652,113.348 160.524 C 117.018 156.869,117.200 155.643,117.200 134.580 L 117.200 117.200 134.580 117.200 C 155.643 117.200,156.869 117.018,160.524 113.348 C 166.652 107.197,163.932 97.200,155.400 94.516 C 154.213 94.142,149.078 94.011,135.500 94.006 L 117.200 94.000 117.200 76.420 C 117.200 65.193,117.041 58.073,116.760 56.720 C 115.310 49.729,108.269 45.498,101.879 47.778 M244.600 94.400 C 243.867 94.715,243.884 94.746,244.800 94.766 C 245.350 94.778,246.070 94.613,246.400 94.400 C 247.187 93.891,245.784 93.891,244.600 94.400 M342.600 94.400 C 342.736 94.620,343.422 94.787,344.124 94.772 C 345.200 94.748,345.274 94.690,344.600 94.400 C 343.484 93.920,342.304 93.920,342.600 94.400 M241.800 95.540 C 237.426 98.227,234.855 104.355,236.456 108.281 C 237.744 111.440,238.200 112.195,239.692 113.643 C 241.420 115.320,242.828 116.092,245.400 116.772 C 247.829 117.415,341.354 117.361,343.894 116.716 C 347.126 115.894,349.542 114.049,351.377 111.000 C 352.343 109.396,353.308 105.565,352.436 106.800 C 352.203 107.130,352.009 107.800,352.006 108.288 C 351.985 111.375,348.014 115.075,343.354 116.350 C 341.020 116.988,248.180 116.988,245.846 116.350 C 237.887 114.173,234.415 107.106,237.914 100.204 C 238.631 98.789,241.905 95.600,242.640 95.600 C 242.922 95.600,243.264 95.420,243.400 95.200 C 243.779 94.586,243.127 94.725,241.800 95.540 M345.820 95.122 C 346.029 95.299,346.886 95.947,347.724 96.561 C 349.695 98.005,351.976 101.122,351.996 102.400 C 352.005 102.950,352.203 103.670,352.436 104.000 C 353.052 104.872,352.485 101.724,351.780 100.362 C 350.900 98.660,349.188 96.803,347.541 95.763 C 346.080 94.841,345.024 94.447,345.820 95.122 M67.726 250.989 C 63.494 252.913,61.111 256.663,61.111 261.400 C 61.111 266.287,61.351 266.609,75.866 281.213 C 82.980 288.371,88.800 294.397,88.800 294.605 C 88.800 294.814,82.958 300.838,75.819 307.992 C 61.255 322.586,61.111 322.780,61.111 327.784 C 61.111 334.207,65.745 338.841,72.192 338.867 C 77.233 338.886,77.386 338.773,92.008 324.181 C 99.162 317.042,105.186 311.200,105.395 311.200 C 105.603 311.200,111.629 317.020,118.787 324.134 C 133.397 338.655,133.722 338.897,138.590 338.878 C 145.356 338.853,150.327 333.752,149.918 327.254 C 149.626 322.599,149.226 322.077,135.202 308.027 C 128.119 300.931,122.400 294.887,122.400 294.498 C 122.400 294.109,127.854 288.355,134.630 281.598 C 141.356 274.889,147.351 268.680,147.953 267.800 C 153.203 260.119,147.932 250.200,138.600 250.200 C 133.752 250.200,133.719 250.225,118.987 264.867 C 111.719 272.090,105.649 278.000,105.497 278.000 C 105.345 278.000,99.259 272.067,91.972 264.814 C 76.009 248.927,74.347 247.979,67.726 250.989 " stroke="none" fill="#6c544d" fill-rule="evenodd"></path><path id="path2" d="M199.901 99.895 L 199.800 199.800 99.895 199.901 L -0.011 200.002 0.095 287.467 C 0.178 357.010,0.302 374.968,0.700 375.100 C 0.975 375.192,1.200 375.792,1.200 376.433 C 1.200 377.075,1.380 377.600,1.600 377.600 C 1.820 377.600,2.000 378.050,2.000 378.600 C 2.000 379.150,2.180 379.600,2.400 379.600 C 2.620 379.600,2.804 379.915,2.809 380.300 C 2.814 380.685,3.170 381.450,3.600 382.000 C 4.030 382.550,4.386 383.225,4.391 383.500 C 4.396 383.775,4.580 384.000,4.800 384.000 C 5.020 384.000,5.201 384.225,5.201 384.500 C 5.204 385.307,11.461 392.400,12.171 392.400 C 12.301 392.400,12.972 392.940,13.663 393.600 C 14.354 394.260,15.162 394.800,15.459 394.800 C 15.757 394.800,16.000 394.936,16.000 395.102 C 16.000 395.269,16.585 395.659,17.300 395.970 C 18.015 396.281,18.690 396.640,18.800 396.768 C 19.259 397.301,20.846 398.000,21.595 398.000 C 22.038 398.000,22.400 398.180,22.400 398.400 C 22.400 398.620,22.925 398.800,23.567 398.800 C 24.208 398.800,24.808 399.025,24.900 399.300 C 25.032 399.698,42.951 399.822,112.333 399.906 L 199.598 400.012 199.699 299.906 L 199.800 199.800 299.905 199.699 L 400.011 199.598 399.905 112.333 C 399.822 42.950,399.698 25.032,399.300 24.900 C 399.025 24.808,398.800 24.208,398.800 23.567 C 398.800 22.925,398.620 22.400,398.400 22.400 C 398.180 22.400,398.000 21.961,398.000 21.424 C 398.000 20.887,397.820 20.336,397.600 20.200 C 397.380 20.064,397.200 19.686,397.200 19.360 C 397.200 19.033,396.840 18.380,396.400 17.908 C 395.960 17.436,395.600 16.813,395.600 16.525 C 395.600 16.236,395.420 16.000,395.200 16.000 C 394.980 16.000,394.797 15.775,394.793 15.500 C 394.771 14.015,385.985 5.229,384.500 5.207 C 384.225 5.203,384.000 5.020,384.000 4.800 C 384.000 4.580,383.730 4.400,383.400 4.400 C 383.070 4.400,382.800 4.220,382.800 4.000 C 382.800 3.780,382.530 3.600,382.200 3.600 C 381.870 3.600,381.600 3.420,381.600 3.200 C 381.600 2.980,381.251 2.800,380.824 2.800 C 380.397 2.800,379.936 2.620,379.800 2.400 C 379.664 2.180,379.113 2.000,378.576 2.000 C 378.039 2.000,377.600 1.864,377.600 1.698 C 377.600 0.233,377.615 0.233,287.301 0.109 L 200.002 -0.011 199.901 99.895 M346.584 94.572 C 355.776 99.226,355.801 112.009,346.626 116.387 L 344.086 117.600 294.743 117.594 C 243.077 117.588,244.588 117.636,241.340 115.896 C 239.916 115.133,237.616 112.595,236.831 110.919 C 236.543 110.303,236.148 109.487,235.953 109.105 C 233.911 105.091,237.297 96.968,241.911 94.816 C 242.510 94.536,243.270 94.159,243.600 93.977 C 243.930 93.796,266.804 93.636,294.432 93.624 L 344.664 93.600 346.584 94.572 M77.698 250.603 C 79.214 251.345,81.148 252.914,83.556 255.355 C 85.533 257.360,91.279 263.116,96.325 268.146 L 105.498 277.292 118.333 264.460 C 133.092 249.707,133.458 249.435,138.600 249.442 C 145.767 249.451,150.554 254.240,150.554 261.400 C 150.554 266.597,150.436 266.757,135.678 281.537 L 122.720 294.515 135.538 307.358 C 150.305 322.152,150.578 322.524,150.568 327.800 C 150.551 336.918,141.895 342.255,133.200 338.510 C 132.348 338.143,126.711 332.839,118.792 324.954 C 111.638 317.829,105.665 312.000,105.518 312.000 C 105.372 312.000,99.523 317.715,92.521 324.700 C 83.687 333.511,79.239 337.666,77.994 338.269 C 75.389 339.532,73.041 340.135,71.739 339.875 C 68.702 339.270,68.088 339.084,66.600 338.314 C 61.921 335.893,59.040 329.772,60.440 325.228 C 61.632 321.362,62.603 320.203,75.300 307.493 C 82.285 300.502,88.000 294.654,88.000 294.499 C 88.000 294.343,82.171 288.362,75.046 281.208 C 62.203 268.311,61.450 267.411,60.450 263.754 C 57.897 254.419,68.689 246.191,77.698 250.603 " stroke="none" fill="#cbebfb" fill-rule="evenodd"></path><path id="path3" d="M26.000 0.293 C 25.230 0.383,24.429 0.624,24.220 0.829 C 24.011 1.033,23.531 1.200,23.153 1.200 C 22.776 1.200,22.407 1.378,22.333 1.597 C 22.260 1.815,21.705 2.034,21.100 2.084 C 20.495 2.134,20.000 2.315,20.000 2.487 C 20.000 2.659,19.629 2.800,19.176 2.800 C 18.723 2.800,18.464 2.980,18.600 3.200 C 18.738 3.423,18.434 3.600,17.912 3.600 C 17.397 3.600,16.717 3.960,16.400 4.400 C 16.083 4.840,15.543 5.200,15.200 5.200 C 14.857 5.200,14.317 5.560,14.000 6.000 C 13.683 6.440,13.193 6.800,12.912 6.800 C 12.630 6.800,12.400 6.980,12.400 7.200 C 12.400 7.420,12.119 7.600,11.776 7.600 C 11.433 7.600,11.264 7.780,11.400 8.000 C 11.536 8.220,11.356 8.400,11.000 8.400 C 10.644 8.400,10.464 8.580,10.600 8.800 C 10.736 9.020,10.631 9.200,10.367 9.200 C 9.846 9.200,7.396 11.592,7.897 11.612 C 8.063 11.619,7.885 11.808,7.500 12.032 C 7.115 12.256,6.800 12.661,6.800 12.932 C 6.800 13.202,6.440 13.683,6.000 14.000 C 5.560 14.317,5.200 14.857,5.200 15.200 C 5.200 15.543,4.840 16.083,4.400 16.400 C 3.960 16.717,3.600 17.397,3.600 17.912 C 3.600 18.434,3.423 18.738,3.200 18.600 C 2.980 18.464,2.800 18.723,2.800 19.176 C 2.800 19.629,2.620 20.000,2.400 20.000 C 2.180 20.000,2.000 20.540,2.000 21.200 C 2.000 21.860,1.820 22.400,1.600 22.400 C 1.380 22.400,1.200 22.724,1.200 23.120 C 1.200 23.516,0.975 24.065,0.700 24.340 C 0.304 24.736,0.178 43.003,0.094 112.421 L -0.012 200.002 99.894 199.901 L 199.800 199.800 199.901 99.900 L 200.002 0.000 113.701 0.064 C 66.235 0.099,26.770 0.202,26.000 0.293 M110.789 47.738 C 117.196 50.723,117.600 52.342,117.600 75.015 L 117.600 93.600 136.776 93.600 C 149.129 93.600,156.041 93.742,156.200 94.000 C 156.336 94.220,156.797 94.400,157.224 94.400 C 157.651 94.400,158.000 94.580,158.000 94.800 C 158.000 95.020,158.248 95.200,158.552 95.200 C 159.549 95.200,162.337 98.314,163.379 100.591 C 166.282 106.939,163.138 114.277,156.419 116.829 C 154.524 117.550,153.189 117.600,135.996 117.600 L 117.600 117.600 117.600 135.996 C 117.600 153.189,117.550 154.524,116.829 156.419 C 113.611 164.889,103.365 167.142,96.897 160.802 C 95.964 159.887,95.200 158.882,95.200 158.569 C 95.200 158.256,95.020 158.000,94.800 158.000 C 94.580 158.000,94.400 157.651,94.400 157.224 C 94.400 156.797,94.220 156.336,94.000 156.200 C 93.742 156.041,93.600 149.133,93.600 136.788 L 93.600 117.622 74.500 117.511 C 55.766 117.402,55.365 117.383,53.568 116.521 C 44.323 112.085,44.289 98.814,53.512 94.571 L 55.624 93.600 74.612 93.600 L 93.600 93.600 93.600 74.612 L 93.600 55.624 94.571 53.512 C 97.356 47.459,104.631 44.869,110.789 47.738 M257.600 260.000 C 257.270 260.213,256.505 260.391,255.900 260.394 C 255.295 260.397,254.800 260.580,254.800 260.800 C 254.800 261.020,254.571 261.200,254.291 261.200 C 252.478 261.200,249.262 265.490,248.368 269.100 C 247.121 274.141,250.834 280.229,256.111 281.796 C 259.856 282.908,330.406 282.681,333.485 281.548 C 335.885 280.664,339.600 277.416,339.600 276.201 C 339.600 275.871,339.760 275.600,339.956 275.600 C 340.152 275.600,340.409 275.015,340.528 274.300 C 340.646 273.585,340.870 272.490,341.024 271.867 C 341.541 269.785,339.949 265.718,337.686 263.339 C 336.162 261.736,334.880 261.001,331.972 260.061 C 330.134 259.468,258.515 259.409,257.600 260.000 M257.000 306.900 C 249.221 309.617,246.073 316.411,249.453 323.186 C 250.959 326.205,253.770 328.180,257.800 329.053 C 260.984 329.742,326.726 329.837,330.767 329.158 C 335.760 328.320,339.655 324.930,340.602 320.600 C 341.180 317.955,341.260 316.484,340.838 316.223 C 340.597 316.074,340.400 315.511,340.400 314.971 C 340.400 314.025,339.836 312.735,339.000 311.769 C 336.166 308.493,335.014 307.677,332.200 306.950 C 330.281 306.455,258.412 306.407,257.000 306.900 " stroke="none" fill="#ebebeb" fill-rule="evenodd"></path><path id="path4" d="M246.400 94.400 C 246.070 94.613,245.400 94.791,244.912 94.794 C 242.993 94.807,239.124 97.813,237.889 100.251 C 234.417 107.107,237.913 114.180,245.846 116.350 C 248.180 116.988,341.020 116.988,343.354 116.350 C 350.135 114.495,353.602 109.118,352.138 102.726 C 351.378 99.411,346.741 94.830,344.124 94.810 C 343.422 94.804,342.736 94.620,342.600 94.400 C 342.266 93.859,247.237 93.859,246.400 94.400 " stroke="none" fill="#54443c" fill-rule="evenodd"></path><path id="path5" d="M102.538 47.106 C 102.283 47.268,103.570 47.400,105.398 47.400 C 107.225 47.400,108.513 47.268,108.260 47.106 C 108.007 46.944,106.720 46.812,105.400 46.812 C 104.080 46.812,102.792 46.944,102.538 47.106 M98.706 49.009 C 93.734 52.657,93.600 53.347,93.600 75.250 L 93.600 93.600 75.204 93.600 C 54.971 93.600,54.740 93.625,51.387 96.183 C 49.893 97.322,47.590 100.433,47.618 101.272 C 47.627 101.562,47.990 101.128,48.423 100.308 C 51.540 94.404,52.237 94.238,74.800 94.000 L 93.800 93.800 94.000 74.800 L 94.200 55.800 95.321 53.517 C 96.412 51.296,98.125 49.594,100.600 48.273 C 101.260 47.920,101.530 47.629,101.200 47.626 C 100.870 47.623,99.748 48.245,98.706 49.009 M112.566 49.676 C 113.418 50.378,114.629 51.763,115.257 52.755 C 115.886 53.746,116.399 54.386,116.399 54.178 C 116.394 53.052,112.386 48.400,111.421 48.400 C 111.199 48.400,111.714 48.974,112.566 49.676 M116.662 56.200 C 116.796 57.080,116.972 57.875,117.053 57.967 C 117.356 58.310,117.129 56.168,116.781 55.400 C 116.529 54.842,116.493 55.085,116.662 56.200 M136.000 94.006 C 146.450 94.130,155.450 94.390,156.000 94.582 C 158.524 95.467,160.800 97.407,162.357 100.000 C 162.819 100.770,163.197 101.220,163.197 101.000 C 163.197 99.750,160.255 96.375,158.208 95.278 C 155.133 93.628,154.864 93.609,135.600 93.697 L 117.000 93.781 136.000 94.006 M244.938 93.906 C 244.523 94.170,293.746 94.163,329.800 93.894 C 337.500 93.836,321.660 93.750,294.600 93.701 C 267.540 93.652,245.192 93.744,244.938 93.906 M346.099 94.978 C 346.703 95.293,347.423 95.668,347.699 95.810 C 347.974 95.953,347.750 95.698,347.200 95.244 C 346.650 94.789,345.930 94.415,345.600 94.411 C 345.270 94.408,345.494 94.663,346.099 94.978 M240.278 96.213 C 238.806 97.507,239.333 97.496,240.873 96.200 C 241.527 95.650,241.913 95.206,241.731 95.213 C 241.549 95.220,240.895 95.670,240.278 96.213 M348.400 96.125 C 348.400 96.194,348.985 96.779,349.700 97.425 L 351.000 98.600 349.825 97.300 C 348.730 96.088,348.400 95.816,348.400 96.125 M236.229 102.229 C 236.081 102.815,236.038 103.372,236.132 103.466 C 236.227 103.560,236.424 103.158,236.571 102.571 C 236.719 101.985,236.762 101.428,236.668 101.334 C 236.573 101.240,236.376 101.642,236.229 102.229 M163.234 102.000 C 163.246 102.330,163.411 102.960,163.600 103.400 L 163.944 104.200 163.966 103.400 C 163.978 102.960,163.813 102.330,163.600 102.000 C 163.255 101.467,163.215 101.467,163.234 102.000 M47.043 102.633 C 46.703 103.517,46.750 107.703,47.106 108.260 C 47.268 108.513,47.400 107.208,47.400 105.360 C 47.400 101.710,47.399 101.704,47.043 102.633 M352.600 105.400 C 352.600 107.228,352.732 108.516,352.894 108.262 C 353.056 108.008,353.188 106.720,353.188 105.400 C 353.188 104.080,353.056 102.792,352.894 102.538 C 352.732 102.284,352.600 103.572,352.600 105.400 M163.400 108.000 C 163.248 108.691,163.214 109.347,163.324 109.457 C 163.434 109.567,163.648 109.091,163.800 108.400 C 163.952 107.709,163.986 107.053,163.876 106.943 C 163.766 106.833,163.552 107.309,163.400 108.000 M48.404 111.426 C 48.399 111.982,52.018 115.601,52.574 115.596 C 52.808 115.593,52.422 115.136,51.716 114.579 C 51.010 114.023,49.977 112.990,49.421 112.284 C 48.864 111.578,48.407 111.192,48.404 111.426 M350.472 112.389 C 349.257 114.031,349.380 114.323,350.650 112.814 C 351.227 112.128,351.619 111.486,351.521 111.388 C 351.423 111.290,350.951 111.740,350.472 112.389 M160.615 113.234 C 159.744 114.133,158.394 115.205,157.615 115.616 C 156.837 116.028,156.390 116.373,156.622 116.382 C 157.427 116.416,160.683 114.088,161.566 112.848 C 162.754 111.179,162.515 111.276,160.615 113.234 M238.383 112.684 C 238.850 113.390,239.810 114.352,240.516 114.821 L 241.800 115.673 240.600 114.589 C 239.940 113.993,238.980 113.031,238.467 112.453 L 237.534 111.400 238.383 112.684 M347.681 114.972 C 345.827 116.283,345.594 116.606,347.029 115.877 C 347.705 115.534,348.492 114.971,348.778 114.626 C 349.471 113.791,349.254 113.860,347.681 114.972 M55.400 116.781 C 56.168 117.129,58.310 117.356,57.967 117.053 C 57.875 116.972,57.080 116.796,56.200 116.662 C 55.085 116.493,54.842 116.529,55.400 116.781 M153.800 116.800 L 152.600 117.105 153.800 117.147 C 154.460 117.169,155.270 117.013,155.600 116.800 C 156.343 116.320,155.687 116.320,153.800 116.800 M244.400 116.782 C 244.730 117.005,245.345 117.191,245.767 117.194 C 246.790 117.202,246.471 116.973,245.000 116.644 C 244.124 116.448,243.962 116.485,244.400 116.782 M343.400 116.800 L 342.600 117.144 343.400 117.166 C 343.840 117.178,344.470 117.013,344.800 116.800 C 345.595 116.286,344.596 116.286,343.400 116.800 M93.697 135.600 C 93.609 154.864,93.628 155.133,95.278 158.208 C 96.375 160.255,99.750 163.197,101.000 163.197 C 101.220 163.197,100.770 162.819,100.000 162.357 C 97.407 160.800,95.467 158.524,94.582 156.000 C 94.390 155.450,94.130 146.450,94.006 136.000 L 93.781 117.000 93.697 135.600 M116.854 153.400 C 116.819 153.840,116.689 154.650,116.567 155.200 C 116.375 156.063,116.407 156.103,116.798 155.490 C 117.047 155.099,117.177 154.289,117.086 153.690 C 116.978 152.979,116.897 152.879,116.854 153.400 M115.623 157.544 C 115.357 158.188,114.297 159.581,113.269 160.640 C 111.655 162.303,111.591 162.426,112.800 161.539 C 114.198 160.514,116.707 156.974,116.315 156.582 C 116.201 156.468,115.890 156.901,115.623 157.544 M102.000 163.600 C 102.330 163.813,102.960 163.978,103.400 163.966 L 104.200 163.944 103.400 163.600 C 102.204 163.086,101.205 163.086,102.000 163.600 M107.400 163.600 L 106.600 163.944 107.400 163.944 C 107.840 163.944,108.560 163.789,109.000 163.600 L 109.800 163.256 109.000 163.256 C 108.560 163.256,107.840 163.411,107.400 163.600 M71.500 249.882 C 71.995 249.978,72.805 249.978,73.300 249.882 C 73.795 249.787,73.390 249.709,72.400 249.709 C 71.410 249.709,71.005 249.787,71.500 249.882 M137.705 249.887 C 138.314 249.979,139.214 249.977,139.705 249.882 C 140.197 249.787,139.700 249.711,138.600 249.714 C 137.500 249.717,137.097 249.795,137.705 249.887 M66.494 251.215 C 63.369 253.007,60.739 256.983,60.850 259.749 C 60.896 260.885,60.925 260.853,61.173 259.400 C 61.802 255.710,64.248 252.570,67.726 250.989 C 68.867 250.470,69.530 250.037,69.200 250.027 C 68.870 250.016,67.652 250.551,66.494 251.215 M132.600 251.259 C 132.160 251.498,125.908 257.564,118.706 264.739 L 105.611 277.784 92.480 264.692 C 85.258 257.491,79.202 251.600,79.022 251.600 C 78.842 251.600,84.663 257.540,91.958 264.800 C 99.253 272.060,105.348 278.000,105.503 278.000 C 105.657 278.000,111.638 272.183,118.792 265.073 C 125.946 257.963,132.250 251.852,132.800 251.494 C 133.935 250.754,133.807 250.604,132.600 251.259 M144.400 251.513 C 145.682 252.373,147.627 254.318,148.487 255.600 C 148.856 256.150,149.167 256.361,149.179 256.068 C 149.206 255.375,144.625 250.794,143.932 250.821 C 143.639 250.833,143.850 251.144,144.400 251.513 M150.109 261.200 C 150.109 262.190,150.187 262.595,150.282 262.100 C 150.378 261.605,150.378 260.795,150.282 260.300 C 150.187 259.805,150.109 260.210,150.109 261.200 M336.800 261.725 C 336.800 261.794,337.385 262.379,338.100 263.025 L 339.400 264.200 338.225 262.900 C 337.130 261.688,336.800 261.416,336.800 261.725 M60.850 263.104 C 60.735 266.097,62.002 267.666,75.466 281.213 C 82.580 288.371,88.400 294.402,88.400 294.616 C 88.400 294.830,82.628 300.764,75.574 307.802 C 68.519 314.841,62.489 321.086,62.174 321.680 C 61.202 323.510,61.538 323.451,62.757 321.578 C 63.393 320.600,69.513 314.221,76.357 307.402 C 83.200 300.584,88.800 294.830,88.800 294.616 C 88.800 294.402,82.980 288.371,75.867 281.213 C 62.774 268.039,61.752 266.800,61.173 263.400 C 60.912 261.872,60.898 261.859,60.850 263.104 M149.400 264.800 C 149.250 265.273,149.217 265.750,149.327 265.860 C 149.437 265.970,149.650 265.673,149.800 265.200 C 149.950 264.727,149.983 264.250,149.873 264.140 C 149.763 264.030,149.550 264.327,149.400 264.800 M148.051 267.700 C 147.603 268.415,141.648 274.579,134.818 281.398 C 127.969 288.235,122.400 294.109,122.400 294.496 C 122.400 294.883,128.268 301.072,135.487 308.298 C 142.684 315.504,148.186 320.860,147.713 320.200 C 147.239 319.540,141.441 313.601,134.826 307.003 C 128.212 300.404,122.800 294.733,122.800 294.400 C 122.800 294.067,128.482 288.126,135.426 281.198 C 142.371 274.269,148.315 268.105,148.637 267.500 C 149.444 265.980,149.043 266.117,148.051 267.700 M341.328 271.200 C 341.328 272.630,341.401 273.215,341.489 272.500 C 341.578 271.785,341.578 270.615,341.489 269.900 C 341.401 269.185,341.328 269.770,341.328 271.200 M275.700 306.300 C 285.985 306.359,302.815 306.359,313.100 306.300 C 323.385 306.240,314.970 306.192,294.400 306.192 C 273.830 306.192,265.415 306.240,275.700 306.300 M336.800 308.525 C 336.800 308.594,337.385 309.179,338.100 309.825 L 339.400 311.000 338.225 309.700 C 337.130 308.488,336.800 308.216,336.800 308.525 M92.598 323.643 C 85.779 330.487,79.400 336.607,78.422 337.243 C 76.549 338.462,76.490 338.798,78.320 337.826 C 78.914 337.511,85.159 331.481,92.198 324.426 C 99.236 317.372,105.170 311.600,105.384 311.600 C 105.598 311.600,111.629 317.420,118.787 324.534 C 132.334 337.998,133.903 339.265,136.896 339.150 C 138.141 339.102,138.128 339.088,136.600 338.827 C 133.200 338.248,131.961 337.226,118.787 324.133 C 111.629 317.020,105.598 311.200,105.384 311.200 C 105.170 311.200,99.416 316.800,92.598 323.643 M341.328 318.000 C 341.328 319.430,341.401 320.015,341.489 319.300 C 341.578 318.585,341.578 317.415,341.489 316.700 C 341.401 315.985,341.328 316.570,341.328 318.000 M61.034 324.500 C 60.549 326.909,60.436 328.161,60.754 327.600 C 60.941 327.270,61.191 326.235,61.309 325.300 C 61.535 323.514,61.344 322.959,61.034 324.500 M250.000 325.325 C 250.000 325.394,250.585 325.979,251.300 326.625 L 252.600 327.800 251.425 326.500 C 250.330 325.288,250.000 325.016,250.000 325.325 M150.109 327.600 C 150.109 328.590,150.187 328.995,150.282 328.500 C 150.378 328.005,150.378 327.195,150.282 326.700 C 150.187 326.205,150.109 326.610,150.109 327.600 M60.850 329.504 C 60.623 335.412,71.005 341.853,75.866 338.820 C 76.509 338.419,76.480 338.395,75.635 338.629 C 69.245 340.395,62.267 336.134,61.176 329.800 C 60.912 328.270,60.898 328.257,60.850 329.504 M276.270 329.900 C 286.208 329.959,302.588 329.959,312.670 329.900 C 322.751 329.840,314.620 329.792,294.600 329.792 C 274.580 329.792,266.331 329.840,276.270 329.900 M149.025 332.190 C 147.759 335.506,144.356 338.187,140.600 338.827 C 139.072 339.088,139.059 339.102,140.304 339.150 C 143.853 339.286,150.747 333.240,149.909 330.727 C 149.826 330.477,149.428 331.135,149.025 332.190 " stroke="none" fill="#a0a4b0" fill-rule="evenodd"></path><path id="path6" d="M235.701 105.400 C 235.705 106.280,235.787 106.593,235.883 106.095 C 235.979 105.598,235.975 104.878,235.875 104.495 C 235.775 104.113,235.696 104.520,235.701 105.400 M117.987 265.002 C 111.050 271.931,105.471 277.600,105.589 277.600 C 105.708 277.600,111.473 271.930,118.400 265.000 C 125.327 258.070,130.906 252.401,130.798 252.402 C 130.689 252.403,124.924 258.073,117.987 265.002 M276.730 259.500 C 286.702 259.559,302.902 259.559,312.730 259.500 C 322.559 259.440,314.400 259.392,294.600 259.392 C 274.800 259.392,266.759 259.440,276.730 259.500 M134.998 281.700 L 122.600 294.200 135.100 281.802 C 141.975 274.984,147.600 269.359,147.600 269.302 C 147.600 269.020,146.519 270.083,134.998 281.700 M75.598 307.500 L 63.000 320.200 75.700 307.602 C 87.503 295.895,88.580 294.800,88.298 294.800 C 88.241 294.800,82.526 300.515,75.598 307.500 M92.398 324.300 L 79.800 337.000 92.500 324.402 C 104.303 312.695,105.380 311.600,105.098 311.600 C 105.041 311.600,99.326 317.315,92.398 324.300 " stroke="none" fill="#a4afbe" fill-rule="evenodd"></path><path id="path7" d="M108.400 47.200 C 108.730 47.413,109.270 47.588,109.600 47.588 C 110.133 47.588,110.133 47.545,109.600 47.200 C 109.270 46.987,108.730 46.812,108.400 46.812 C 107.867 46.812,107.867 46.855,108.400 47.200 M99.400 48.064 C 98.368 48.630,95.200 51.668,95.200 52.090 C 95.200 52.268,95.965 51.638,96.900 50.689 C 97.835 49.740,99.050 48.666,99.600 48.303 C 100.734 47.553,100.607 47.401,99.400 48.064 M113.556 50.048 C 117.083 53.567,116.972 52.821,117.209 74.600 L 117.419 93.800 117.509 75.104 C 117.615 53.294,117.355 51.849,112.800 48.935 C 112.250 48.584,112.590 49.084,113.556 50.048 M50.130 96.900 C 49.230 97.835,48.287 99.050,48.035 99.600 L 47.577 100.600 48.270 99.600 C 48.651 99.050,49.740 97.835,50.689 96.900 C 51.638 95.965,52.268 95.200,52.090 95.200 C 51.912 95.200,51.030 95.965,50.130 96.900 M159.256 95.966 C 159.775 96.387,160.277 96.655,160.371 96.561 C 160.576 96.357,159.144 95.231,158.656 95.213 C 158.466 95.206,158.736 95.545,159.256 95.966 M160.800 96.980 C 160.800 97.148,161.250 97.819,161.800 98.473 C 162.350 99.127,162.800 99.513,162.800 99.331 C 162.799 99.149,162.349 98.477,161.800 97.838 C 161.250 97.199,160.800 96.813,160.800 96.980 M163.447 101.601 C 163.897 102.727,164.043 104.082,163.937 106.173 C 163.855 107.807,163.922 108.932,164.088 108.672 C 164.921 107.361,163.996 100.000,162.998 100.000 C 162.893 100.000,163.095 100.720,163.447 101.601 M46.812 108.400 C 46.812 108.730,46.987 109.270,47.200 109.600 C 47.545 110.133,47.588 110.133,47.588 109.600 C 47.588 109.270,47.413 108.730,47.200 108.400 C 46.855 107.867,46.812 107.867,46.812 108.400 M162.738 110.879 C 161.639 113.184,160.037 114.737,157.472 115.980 C 154.856 117.249,154.625 117.618,157.091 116.588 C 159.904 115.413,163.947 111.240,163.518 109.954 C 163.441 109.724,163.090 110.141,162.738 110.879 M49.066 112.871 C 52.456 117.391,52.496 117.398,74.600 117.415 L 93.800 117.430 74.600 117.215 C 52.829 116.971,53.650 117.094,50.027 113.534 C 49.057 112.580,48.624 112.282,49.066 112.871 M117.383 117.700 C 117.278 117.975,117.240 126.480,117.300 136.600 L 117.408 155.000 117.504 136.304 L 117.600 117.608 136.300 117.500 L 155.000 117.392 136.287 117.296 C 121.615 117.221,117.534 117.308,117.383 117.700 M116.419 156.542 C 115.668 158.818,113.752 161.097,111.506 162.385 C 110.348 163.049,109.638 163.594,109.928 163.596 C 112.074 163.612,118.222 156.489,117.063 155.330 C 116.962 155.229,116.673 155.774,116.419 156.542 M95.213 158.656 C 95.231 159.144,96.357 160.576,96.561 160.371 C 96.655 160.277,96.387 159.775,95.966 159.256 C 95.545 158.736,95.206 158.466,95.213 158.656 M97.927 161.800 C 98.581 162.350,99.238 162.800,99.388 162.800 C 99.539 162.800,99.127 162.350,98.473 161.800 C 97.819 161.250,97.162 160.800,97.012 160.800 C 96.861 160.800,97.273 161.250,97.927 161.800 M100.000 162.998 C 100.000 163.996,107.361 164.921,108.672 164.088 C 108.932 163.922,107.807 163.855,106.173 163.937 C 104.082 164.043,102.727 163.897,101.601 163.447 C 100.720 163.095,100.000 162.893,100.000 162.998 " stroke="none" fill="#c8bebc" fill-rule="evenodd"></path><path id="path8" d="M353.314 105.400 C 353.317 106.500,353.395 106.903,353.487 106.295 C 353.579 105.686,353.577 104.786,353.482 104.295 C 353.387 103.803,353.311 104.300,353.314 105.400 M235.600 107.776 C 235.600 108.313,235.747 108.844,235.928 108.955 C 236.108 109.067,236.177 108.627,236.082 107.979 C 235.872 106.549,235.600 106.435,235.600 107.776 M238.804 113.748 C 239.917 115.030,242.516 116.800,243.286 116.800 C 243.562 116.800,243.071 116.422,242.194 115.960 C 241.317 115.498,239.972 114.553,239.204 113.860 C 237.891 112.675,237.867 112.668,238.804 113.748 M349.587 114.113 C 349.030 114.601,348.130 115.323,347.587 115.717 C 346.638 116.407,346.651 116.407,347.924 115.717 C 348.652 115.323,349.628 114.595,350.094 114.100 C 351.170 112.954,350.902 112.961,349.587 114.113 M294.600 117.200 L 244.600 117.405 294.400 117.496 C 326.034 117.554,344.419 117.446,344.800 117.200 C 345.130 116.987,345.220 116.853,345.000 116.904 C 344.780 116.954,322.100 117.087,294.600 117.200 M199.785 200.100 C 199.681 200.375,199.642 245.510,199.698 300.400 L 199.802 400.200 199.901 300.101 L 200.000 200.002 300.100 199.900 L 400.200 199.798 300.087 199.699 C 220.292 199.620,199.936 199.701,199.785 200.100 M71.300 249.487 C 71.905 249.578,72.895 249.578,73.500 249.487 C 74.105 249.395,73.610 249.320,72.400 249.320 C 71.190 249.320,70.695 249.395,71.300 249.487 M137.705 249.487 C 138.314 249.579,139.214 249.577,139.705 249.482 C 140.197 249.387,139.700 249.311,138.600 249.314 C 137.500 249.317,137.097 249.395,137.705 249.487 M64.077 252.659 L 62.200 254.518 64.200 252.791 C 65.300 251.841,66.275 251.004,66.367 250.932 C 66.458 250.859,66.403 250.800,66.243 250.800 C 66.084 250.800,65.109 251.637,64.077 252.659 M131.400 251.600 C 130.740 252.037,130.380 252.392,130.600 252.388 C 131.001 252.382,133.176 250.823,132.800 250.812 C 132.690 250.808,132.060 251.163,131.400 251.600 M146.130 252.117 C 146.751 252.645,147.786 253.870,148.428 254.839 C 149.071 255.807,149.597 256.452,149.598 256.272 C 149.602 255.568,147.186 252.485,146.123 251.839 L 145.000 251.156 146.130 252.117 M83.000 255.200 C 84.971 257.180,86.673 258.800,86.783 258.800 C 86.893 258.800,85.371 257.180,83.400 255.200 C 81.429 253.220,79.727 251.600,79.617 251.600 C 79.507 251.600,81.029 253.220,83.000 255.200 M60.243 259.433 C 59.930 260.247,59.978 262.403,60.328 263.285 C 60.478 263.662,60.600 262.807,60.600 261.385 C 60.600 258.550,60.594 258.517,60.243 259.433 M96.000 268.200 C 100.946 273.150,105.083 277.200,105.193 277.200 C 105.303 277.200,101.346 273.150,96.400 268.200 C 91.454 263.250,87.317 259.200,87.207 259.200 C 87.097 259.200,91.054 263.250,96.000 268.200 M150.514 261.400 C 150.517 262.500,150.595 262.903,150.687 262.295 C 150.779 261.686,150.777 260.786,150.682 260.295 C 150.587 259.803,150.511 260.300,150.514 261.400 M256.200 260.000 L 255.400 260.344 256.200 260.366 C 256.640 260.378,257.270 260.213,257.600 260.000 C 258.395 259.486,257.396 259.486,256.200 260.000 M251.667 262.700 L 250.165 264.200 251.582 263.001 C 252.362 262.342,253.171 261.667,253.380 261.501 C 253.589 261.335,253.627 261.200,253.465 261.200 C 253.302 261.200,252.493 261.875,251.667 262.700 M336.800 262.178 C 336.800 262.275,337.456 263.040,338.257 263.878 L 339.715 265.400 338.424 263.700 C 337.231 262.129,336.800 261.725,336.800 262.178 M249.058 265.900 C 248.749 266.505,248.391 267.630,248.261 268.400 C 248.042 269.708,248.063 269.691,248.574 268.146 C 248.876 267.236,249.326 266.111,249.575 265.646 C 249.824 265.181,249.936 264.800,249.824 264.800 C 249.712 264.800,249.368 265.295,249.058 265.900 M148.495 267.823 C 148.003 268.574,147.600 269.323,147.600 269.487 C 147.600 269.651,148.066 269.100,148.636 268.262 C 149.205 267.424,149.608 266.675,149.531 266.598 C 149.454 266.520,148.988 267.072,148.495 267.823 M75.203 281.400 C 82.351 288.660,88.282 294.548,88.383 294.484 C 88.484 294.420,82.635 288.480,75.386 281.284 L 62.206 268.200 75.203 281.400 M340.600 273.200 C 340.450 273.673,340.417 274.150,340.527 274.260 C 340.637 274.370,340.850 274.073,341.000 273.600 C 341.150 273.127,341.183 272.650,341.073 272.540 C 340.963 272.430,340.750 272.727,340.600 273.200 M250.419 278.295 C 250.927 279.007,251.436 279.497,251.550 279.383 C 251.664 279.269,251.249 278.686,250.626 278.088 L 249.495 277.000 250.419 278.295 M337.625 278.969 L 336.250 280.600 337.805 279.113 C 338.660 278.296,339.279 277.562,339.180 277.483 C 339.081 277.403,338.381 278.072,337.625 278.969 M334.200 281.222 C 333.320 281.638,332.834 281.984,333.120 281.990 C 333.702 282.001,336.000 280.884,336.000 280.590 C 336.000 280.356,336.118 280.314,334.200 281.222 M133.381 283.700 L 131.800 285.400 133.500 283.819 C 134.435 282.949,135.200 282.184,135.200 282.119 C 135.200 281.816,134.852 282.119,133.381 283.700 M276.330 282.700 C 286.522 282.759,303.082 282.759,313.130 282.700 C 323.179 282.640,314.840 282.592,294.600 282.592 C 274.360 282.592,266.139 282.640,276.330 282.700 M135.400 307.600 C 142.437 314.640,148.285 320.400,148.395 320.400 C 148.505 320.400,142.837 314.640,135.800 307.600 C 128.763 300.560,122.915 294.800,122.805 294.800 C 122.695 294.800,128.363 300.560,135.400 307.600 M331.200 306.800 C 331.530 307.013,332.070 307.188,332.400 307.188 C 332.933 307.188,332.933 307.145,332.400 306.800 C 332.070 306.587,331.530 306.412,331.200 306.412 C 330.667 306.412,330.667 306.455,331.200 306.800 M250.648 310.453 C 249.851 311.383,249.200 312.327,249.200 312.550 C 249.200 312.773,249.654 312.335,250.208 311.578 C 250.763 310.820,251.514 309.977,251.879 309.704 C 252.243 309.431,252.441 309.108,252.318 308.985 C 252.196 308.862,251.444 309.523,250.648 310.453 M105.249 311.700 C 105.349 311.755,111.364 317.650,118.615 324.800 L 131.800 337.800 118.802 324.700 C 111.654 317.495,105.639 311.600,105.436 311.600 C 105.233 311.600,105.149 311.645,105.249 311.700 M248.671 313.500 C 248.394 313.970,247.882 316.624,248.111 316.400 C 248.374 316.144,249.183 313.200,248.991 313.200 C 248.912 313.200,248.768 313.335,248.671 313.500 M99.781 317.300 L 98.200 319.000 99.900 317.419 C 101.481 315.948,101.784 315.600,101.481 315.600 C 101.416 315.600,100.651 316.365,99.781 317.300 M248.195 320.800 C 248.354 321.570,248.639 322.365,248.828 322.566 C 249.017 322.767,248.979 322.227,248.744 321.366 C 248.196 319.359,247.818 318.969,248.195 320.800 M340.667 319.867 C 340.520 320.013,340.411 320.508,340.425 320.967 C 340.449 321.733,340.482 321.723,340.834 320.842 C 341.226 319.863,341.144 319.389,340.667 319.867 M337.051 326.103 C 335.980 327.191,335.453 327.893,335.881 327.664 C 336.831 327.155,339.200 324.771,339.200 324.324 C 339.200 323.904,339.306 323.816,337.051 326.103 M60.243 325.833 C 59.920 326.675,59.982 328.811,60.358 329.771 C 60.537 330.228,60.648 329.456,60.630 327.871 C 60.597 324.941,60.593 324.920,60.243 325.833 M150.514 327.800 C 150.517 328.900,150.595 329.303,150.687 328.695 C 150.779 328.086,150.777 327.186,150.682 326.695 C 150.587 326.203,150.511 326.700,150.514 327.800 M256.800 329.179 C 257.130 329.404,257.925 329.591,258.567 329.594 C 260.104 329.602,259.784 329.370,257.800 329.038 C 256.654 328.846,256.370 328.886,256.800 329.179 M330.600 329.200 C 329.511 329.477,329.493 329.507,330.400 329.525 C 330.950 329.535,331.760 329.389,332.200 329.200 C 333.186 328.776,332.266 328.776,330.600 329.200 M149.932 330.800 C 149.806 331.350,149.578 332.160,149.426 332.600 C 149.274 333.040,149.442 332.895,149.799 332.277 C 150.157 331.659,150.385 330.849,150.305 330.477 C 150.202 329.994,150.095 330.087,149.932 330.800 M62.159 334.200 C 62.821 335.595,64.568 337.305,66.000 337.959 C 66.862 338.353,66.890 338.346,66.205 337.908 C 65.177 337.251,62.744 334.817,62.094 333.795 C 61.816 333.358,61.845 333.540,62.159 334.200 M147.224 335.718 C 145.543 337.689,145.529 337.725,146.957 336.400 C 148.223 335.226,149.518 333.554,149.114 333.618 C 149.051 333.628,148.201 334.573,147.224 335.718 M70.527 339.687 C 70.787 339.853,71.630 339.988,72.400 339.988 C 73.170 339.988,74.013 339.853,74.273 339.687 C 74.533 339.522,73.690 339.387,72.400 339.387 C 71.110 339.387,70.267 339.522,70.527 339.687 M136.715 339.672 C 137.092 339.821,137.940 339.944,138.600 339.944 C 139.260 339.944,140.108 339.821,140.485 339.672 C 140.862 339.522,140.014 339.400,138.600 339.400 C 137.186 339.400,136.338 339.522,136.715 339.672 " stroke="none" fill="#acc4d0" fill-rule="evenodd"></path></g></svg>