<?xml version="1.0" encoding="UTF-8" standalone="no"?>
<!DOCTYPE svg PUBLIC "-//W3C//DTD SVG 1.1//EN" "http://www.w3.org/Graphics/SVG/1.1/DTD/svg11.dtd">
<svg width="100%" height="100%" viewBox="0 0 145 64" version="1.1" xmlns="http://www.w3.org/2000/svg" xmlns:xlink="http://www.w3.org/1999/xlink" xml:space="preserve" xmlns:serif="http://www.serif.com/" style="fill-rule:evenodd;clip-rule:evenodd;stroke-linejoin:round;stroke-miterlimit:2;">
    <g transform="matrix(1,0,0,1,-17.7142,-519.2)">
        <g transform="matrix(1.02226,0,0,1.18059,0.650729,-104.03)">
            <path d="M158.025,554.654C158.025,547.558 154.769,540.752 148.975,535.735C143.18,530.717 135.32,527.898 127.125,527.898C103.536,527.898 71.181,527.898 47.592,527.898C39.397,527.898 31.537,530.717 25.742,535.735C19.947,540.752 16.692,547.558 16.692,554.654C16.692,554.717 16.692,554.781 16.692,554.844C16.692,561.94 19.947,568.746 25.742,573.763C31.537,578.781 39.397,581.6 47.592,581.6C71.181,581.6 103.536,581.6 127.125,581.6C135.32,581.6 143.18,578.781 148.975,573.763C154.769,568.746 158.025,561.94 158.025,554.844C158.025,554.781 158.025,554.717 158.025,554.654Z" style="fill:rgb(53,179,190);"/>
        </g>
        <g transform="matrix(1,0,0,1,-2.14878,349.127)">
            <g transform="matrix(48,0,0,48,63.1386,217.325)">
            </g>
            <text x="37.219px" y="217.325px" style="font-family:'Dubai-Bold', 'Dubai', sans-serif;font-weight:700;font-size:48px;fill:white;">0</text>
        </g>
    </g>
</svg>
